<svg xmlns="http://www.w3.org/2000/svg" width="24" height="24" viewBox="0 0 24 24" fill="none">
  <path fill-rule="evenodd" clip-rule="evenodd" d="M12 24C18.6276 24 24 18.6276 24 12C24 5.3724 18.6276 0 12 0C5.3724 0 0 5.3724 0 12C0 18.6276 5.3724 24 12 24ZM10.8 7.2C10.8 6.88174 10.9264 6.57652 11.1515 6.35147C11.3765 6.12643 11.6817 6 12 6C12.3183 6 12.6235 6.12643 12.8485 6.35147C13.0736 6.57652 13.2 6.88174 13.2 7.2V12C13.2 12.3183 13.0736 12.6235 12.8485 12.8485C12.6235 13.0736 12.3183 13.2 12 13.2C11.6817 13.2 11.3765 13.0736 11.1515 12.8485C10.9264 12.6235 10.8 12.3183 10.8 12V7.2ZM13.2 16.8C13.2 17.1183 13.0736 17.4235 12.8485 17.6485C12.6235 17.8736 12.3183 18 12 18C11.6817 18 11.3765 17.8736 11.1515 17.6485C10.9264 17.4235 10.8 17.1183 10.8 16.8C10.8 16.4817 10.9264 16.1765 11.1515 15.9515C11.3765 15.7264 11.6817 15.6 12 15.6C12.3183 15.6 12.6235 15.7264 12.8485 15.9515C13.0736 16.1765 13.2 16.4817 13.2 16.8Z" fill="#E72033"/>
</svg>