<svg xmlns="http://www.w3.org/2000/svg" width="23" height="23" viewBox="0 0 23 23" fill="none">

  <path d="M22.8467 1.18776C22.6523 0.719649 22.2803 0.347659 21.8122 0.153259C21.5819 0.0550947 21.3346 0.00302685 21.0843 0L1.92685 0C1.41876 0 0.931487 0.201837 0.572216 0.561108C0.212945 0.920379 0.0111081 1.40765 0.0111081 1.91574C0.0111081 2.42383 0.212945 2.9111 0.572216 3.27037C0.931487 3.62965 1.41876 3.83148 1.92685 3.83148L16.4673 3.83148L0.566673 19.713C0.387114 19.8911 0.244594 20.103 0.147334 20.3364C0.0500746 20.5699 0 20.8202 0 21.0732C0 21.3261 0.0500746 21.5765 0.147334 21.8099C0.244594 22.0434 0.387114 22.2552 0.566673 22.4333C0.744766 22.6129 0.956649 22.7554 1.1901 22.8527C1.42355 22.9499 1.67395 23 1.92685 23C2.17975 23 2.43015 22.9499 2.6636 22.8527C2.89705 22.7554 3.10893 22.6129 3.28703 22.4333L19.1685 6.53268V21.0732C19.1685 21.5812 19.3704 22.0685 19.7296 22.4278C20.0889 22.7871 20.5762 22.9889 21.0843 22.9889C21.5923 22.9889 22.0796 22.7871 22.4389 22.4278C22.7982 22.0685 23 21.5812 23 21.0732V1.91574C22.997 1.6654 22.9449 1.41807 22.8467 1.18776Z" fill="#fff"/>

</svg>