<svg xmlns="http://www.w3.org/2000/svg" width="33" height="23" viewBox="0 0 33 23" fill="none">
  <symbol viewBox="0 0 33 23" id="busket-menu-icon" style="overflow: visible">
  <path d="M1.75907 0.00777565C1.48816 0.0480341 1.22845 0.137458 0.99476 0.270941C0.761067 0.404423 0.557969 0.579352 0.397062 0.785738C0.0720955 1.20255 -0.0612907 1.7222 0.0262468 2.23036C0.113784 2.73852 0.415075 3.19357 0.863839 3.4954C1.3126 3.79723 1.87208 3.92112 2.41919 3.83981H8.60783L8.97915 4.79782L10.6707 9.58787L12.3623 14.3779C12.5273 14.8761 13.2287 15.3359 13.765 15.3359H28.2052C28.7828 15.3359 29.4429 14.8761 29.6079 14.3779L32.9498 4.79782C33.1148 4.29966 32.8673 3.83981 32.2897 3.83981H13.9713L12.4035 1.08075C12.2365 0.764064 11.9787 0.496324 11.6584 0.30701C11.3381 0.117696 10.9678 0.0141503 10.5882 0.00777565H2.33667C2.21315 -0.00259188 2.08888 -0.00259188 1.96535 0.00777565C1.88291 0.00317306 1.80025 0.00317306 1.71781 0.00777565H1.75907ZM14.7965 19.168C13.6413 19.168 12.7336 20.011 12.7336 21.084C12.7336 22.157 13.6413 23 14.7965 23C15.9517 23 16.8593 22.157 16.8593 21.084C16.8593 20.011 15.9517 19.168 14.7965 19.168ZM27.1737 19.168C26.0185 19.168 25.1109 20.011 25.1109 21.084C25.1109 22.157 26.0185 23 27.1737 23C28.329 23 29.2366 22.157 29.2366 21.084C29.2366 20.011 28.329 19.168 27.1737 19.168Z" fill="currentColor"/>
    </symbol>
</svg>