<svg xmlns="http://www.w3.org/2000/svg" width="52" height="52" viewBox="0 0 52 52" fill="none">
  <rect x="52" y="52" width="52" height="52" rx="26" transform="rotate(-180 52 52)" fill="#262626"/>
  <path d="M34.4711 30.9207C35.1763 31.6262 35.1763 32.766 34.4711 33.4715C34.1194 33.8233 33.6576 34 33.1956 34C32.7338 34 32.2721 33.8233 31.9203 33.4715L26.5 28.0507L21.0797 33.4715C20.7279 33.8233 20.2662 34 19.8044 34C19.3424 34 18.8806 33.8233 18.5289 33.4715C17.8237 32.766 17.8237 31.6262 18.5289 30.9207L23.9495 25.5002L18.5289 20.0797C17.8237 19.3742 17.8237 18.2344 18.5289 17.5289C19.2344 16.8237 20.3742 16.8237 21.0797 17.5289L26.5 22.9497L31.9203 17.5289C32.6258 16.8237 33.7656 16.8237 34.4711 17.5289C35.1763 18.2344 35.1763 19.3742 34.4711 20.0797L29.0505 25.5002L34.4711 30.9207Z" fill="white"/>
</svg>