<svg xmlns="http://www.w3.org/2000/svg" width="27" height="22" viewBox="0 0 27 22" fill="none">
  <path d="M2.0685 11.3768C0.742359 10.133 -9.37432e-05 8.46291 8.87773e-09 6.72377C8.87772e-09 3.0099 3.324 2.29995e-05 7.425 2.29995e-05C9.936 2.29995e-05 12.156 1.12752 13.5 2.8559C14.1906 1.97008 15.1024 1.24862 16.1592 0.751794C17.2161 0.254965 18.3873 -0.0028037 19.575 2.29995e-05C23.676 2.29995e-05 27 3.00989 27 6.72239C27.0001 7.62574 26.7997 8.51967 26.4111 9.34983C26.0225 10.18 25.4538 10.929 24.7395 11.5514L14.8615 20.7343C14.094 21.4478 12.9059 21.4479 12.1383 20.7346L2.0685 11.3768Z" fill="white"/>
</svg>