<svg width="50" height="50" viewBox="0 0 50 50" fill="none" xmlns="http://www.w3.org/2000/svg">
<rect y="0.00683594" width="50" height="50" rx="25" fill="#262626"/>
<path d="M35.1927 16.168C35.1927 15.5267 34.6728 15.0068 34.0315 15.0068H15.1613C14.9222 15.0068 14.6888 15.0807 14.4932 15.2183C13.9687 15.5872 13.8426 16.3116 14.2115 16.8361L21.0534 26.5633L21.0726 33.6399C21.0738 34.0816 21.2051 34.5132 21.4501 34.8808C22.1388 35.9138 23.5346 36.1929 24.5676 35.5043L27.0113 33.8752C27.6606 33.4423 28.0491 32.7123 28.0455 31.932L28.0206 26.6061L34.9772 16.8419C35.1174 16.6451 35.1927 16.4096 35.1927 16.168Z" fill="white"/>
</svg>
