<svg xmlns="http://www.w3.org/2000/svg" width="32" height="32" viewBox="0 0 32 32" fill="none">
    <symbol viewBox="0 0 32 32" id="heart-stroke" style="overflow: visible">
         <path d="M29 7.02795C29 3.14671 25.4298 2.4045e-05 21.025 2.4045e-05C19.7493 -0.00293114 18.4913 0.266555 17.3562 0.785966C16.3828 1.23135 15.524 1.8494 14.8314 2.60039C14.7163 2.72522 14.6057 2.85372 14.5 2.98571L29 7.02795ZM29 7.02795C29.0001 7.97237 28.7849 8.90693 28.3675 9.77482C27.9501 10.6427 27.3392 11.4258 26.5721 12.0764L29 7.02795ZM0.5 7.02942V7.02939C0.5 3.48029 3.78519 0.500024 7.975 0.500024C10.5283 0.500024 12.7658 1.61597 14.1094 3.29779L14.4995 3.78615L14.8903 3.29827C15.5806 2.43633 16.4963 1.72929 17.5642 1.24063C18.6323 0.751925 19.8187 0.497231 21.0238 0.500024H21.025C25.2149 0.500024 28.5 3.48036 28.5 7.02795V7.02799C28.5001 7.89585 28.3024 8.75647 27.9169 9.55811C27.5312 10.36 26.9648 11.0877 26.2486 11.6951L26.2425 11.7003L26.2366 11.7057L15.5062 21.4152C14.9349 21.9322 14.0649 21.9322 13.4935 21.4154L2.55882 11.5246C2.55852 11.5243 2.55821 11.5241 2.55791 11.5238C1.2308 10.3119 0.499908 8.69738 0.5 7.02942Z" stroke="#262626" fill="currentColor"/>
     </symbol>
</svg>