<svg xmlns="http://www.w3.org/2000/svg" width="27" height="22" viewBox="0 0 27 22" fill="none">
 <symbol viewBox="0 0 27 22" id="heart-menu-icon" style="overflow: visible">
  <path d="M0.5 6.72379V6.72377C0.5 3.33156 3.55231 0.500023 7.425 0.500023C9.7871 0.500023 11.8593 1.56048 13.1053 3.16282L13.4995 3.66977L13.8943 3.16331C14.5347 2.34194 15.3833 1.66907 16.3719 1.20429C17.3607 0.739465 18.4587 0.497368 19.5738 0.500023H19.575C23.4478 0.500023 26.5 3.33162 26.5 6.72239V6.72243C26.5001 7.5514 26.3163 8.37305 25.9583 9.13785C25.6002 9.90281 25.0746 10.5962 24.411 11.1744L24.405 11.1797L24.3991 11.1852L14.5211 20.3681C13.9454 20.9032 13.0544 20.9033 12.4786 20.3683L2.41054 11.0121C2.41028 11.0118 2.41003 11.0116 2.40977 11.0113C1.17975 9.85738 0.499914 8.31752 0.5 6.72379Z" fill="currentColor" stroke="currentColor"/>
    </symbol>
</svg>