<svg xmlns="http://www.w3.org/2000/svg" width="12" height="15" viewBox="0 0 12 15" fill="none">
  <path d="M11.25 5.62502C11.25 9.71629 6.49046 14.5229 6.28807 14.7255C6.11223 14.9013 5.87377 15 5.62514 15C5.37651 15 5.13806 14.9013 4.96221 14.7255C4.75959 14.5228 0 9.71629 0 5.62502C0 4.13317 0.592635 2.70243 1.64753 1.64753C2.70243 0.592635 4.13317 0 5.62502 0C7.11687 0 8.54762 0.592635 9.60252 1.64753C10.6574 2.70243 11.25 4.13317 11.25 5.62502ZM5.62502 8.43754C6.18129 8.43754 6.72506 8.27258 7.18757 7.96354C7.65009 7.6545 8.01057 7.21524 8.22345 6.70133C8.43632 6.18741 8.49202 5.6219 8.38349 5.07633C8.27497 4.53076 8.00711 4.02961 7.61377 3.63628C7.22043 3.24294 6.71929 2.97507 6.17372 2.86655C5.62814 2.75803 5.06264 2.81373 4.54872 3.0266C4.0348 3.23947 3.59555 3.59996 3.28651 4.06248C2.97746 4.52499 2.81251 5.06876 2.81251 5.62502C2.8125 5.99437 2.88523 6.36011 3.02657 6.70134C3.16791 7.04258 3.37507 7.35264 3.63624 7.6138C3.89741 7.87497 4.20747 8.08214 4.5487 8.22348C4.88994 8.36481 5.25568 8.43755 5.62502 8.43754Z" fill="#EE9D01"/>
</svg>