<svg xmlns="http://www.w3.org/2000/svg" width="50" height="50" viewBox="0 0 50 50" fill="none">
  <g opacity="0.3">
    <rect y="50" width="50" height="50" rx="25" transform="rotate(-90 0 50)" fill="#EE9D01"/>
    <path d="M13.4391 24.2612C13.2907 24.6203 13.2907 25.0235 13.4391 25.3826C13.5107 25.5606 13.6165 25.7229 13.7506 25.8602L24.134 36.2437C24.4094 36.5191 24.7829 36.6738 25.1724 36.6738C25.5618 36.6738 25.9353 36.5191 26.2107 36.2437C26.4861 35.9683 26.6408 35.5948 26.6408 35.2053C26.6408 34.8159 26.4861 34.4424 26.2107 34.167L18.3297 26.286L35.5558 26.2963C35.7497 26.2971 35.9418 26.2595 36.121 26.1857C36.3003 26.1119 36.4631 26.0033 36.6002 25.8663C36.7373 25.7292 36.8459 25.5663 36.9197 25.3871C36.9935 25.2078 37.0311 25.0157 37.0303 24.8219C37.0311 24.628 36.9935 24.4359 36.9197 24.2567C36.8459 24.0774 36.7373 23.9146 36.6002 23.7775C36.4631 23.6404 36.3003 23.5319 36.121 23.458C35.9418 23.3842 35.7497 23.3466 35.5558 23.3474L18.3297 23.3578L26.2107 15.4768C26.4861 15.2014 26.6408 14.8279 26.6408 14.4384C26.6408 14.049 26.4861 13.6755 26.2107 13.4001C25.9353 13.1247 25.5618 12.97 25.1724 12.97C24.7829 12.97 24.4094 13.1247 24.134 13.4001L13.7506 23.7835C13.6165 23.9209 13.5107 24.0831 13.4391 24.2612Z" fill="white"/>
  </g>
</svg>