<svg xmlns="http://www.w3.org/2000/svg" width="50" height="50" viewBox="0 0 50 50" fill="none">
  <rect x="50" y="2.28882e-05" width="50" height="50" rx="25" transform="rotate(90 50 2.28882e-05)" fill="#EE9D01"/>
  <path d="M36.5609 25.7388C36.7092 25.3798 36.7092 24.9765 36.5609 24.6174C36.4892 24.4394 36.3834 24.2771 36.2494 24.1398L25.8659 13.7563C25.5905 13.4809 25.217 13.3262 24.8276 13.3262C24.4381 13.3262 24.0646 13.4809 23.7892 13.7563C23.5138 14.0317 23.3591 14.4052 23.3591 14.7947C23.3591 15.1841 23.5138 15.5576 23.7892 15.833L31.6703 23.7141L14.4441 23.7037C14.2502 23.7029 14.0582 23.7405 13.8789 23.8143C13.6997 23.8881 13.5368 23.9967 13.3997 24.1338C13.2626 24.2708 13.1541 24.4337 13.0803 24.6129C13.0064 24.7922 12.9688 24.9843 12.9696 25.1781C12.9688 25.372 13.0064 25.5641 13.0803 25.7433C13.1541 25.9226 13.2626 26.0854 13.3997 26.2225C13.5368 26.3596 13.6997 26.4682 13.8789 26.542C14.0581 26.6158 14.2502 26.6534 14.4441 26.6526L31.6703 26.6422L23.7892 34.5232C23.5138 34.7986 23.3591 35.1721 23.3591 35.5616C23.3591 35.9511 23.5138 36.3246 23.7892 36.5999C24.0646 36.8753 24.4381 37.03 24.8276 37.03C25.217 37.03 25.5905 36.8753 25.8659 36.5999L36.2494 26.2165C36.3834 26.0792 36.4892 25.9169 36.5609 25.7388Z" fill="white"/>
</svg>