<svg xmlns="http://www.w3.org/2000/svg" width="13" height="13" viewBox="0 0 13 13" fill="none">
  <path d="M12.1502 6.76963C12.2216 6.5968 12.2216 6.40271 12.1502 6.22989C12.1157 6.1442 12.0648 6.06609 12.0002 6L7.00266 1.00241C6.87011 0.869868 6.69034 0.795406 6.5029 0.795406C6.31545 0.795406 6.13568 0.869868 6.00314 1.00241C5.8706 1.13496 5.79613 1.31472 5.79613 1.50217C5.79613 1.68962 5.8706 1.86938 6.00314 2.00193L9.79631 5.7951L1.50531 5.7901C1.41201 5.78972 1.31956 5.80781 1.23329 5.84334C1.14701 5.87887 1.06863 5.93113 1.00266 5.9971C0.936682 6.06307 0.884424 6.14146 0.848896 6.22773C0.813367 6.314 0.795273 6.40645 0.795656 6.49976C0.795273 6.59306 0.813367 6.68551 0.848895 6.77178C0.884424 6.85805 0.936682 6.93644 1.00266 7.00241C1.06863 7.06839 1.14701 7.12064 1.23329 7.15617C1.31956 7.1917 1.41201 7.2098 1.50531 7.20941L9.79631 7.20442L6.00314 10.9976C5.8706 11.1301 5.79613 11.3099 5.79613 11.4973C5.79613 11.6848 5.87059 11.8646 6.00314 11.9971C6.13568 12.1296 6.31545 12.2041 6.5029 12.2041C6.69034 12.2041 6.87011 12.1296 7.00266 11.9971L12.0002 6.99951C12.0648 6.93342 12.1157 6.85532 12.1502 6.76963Z" fill="#262626"/>
</svg>