<svg xmlns="http://www.w3.org/2000/svg" width="19" height="20" viewBox="0 0 19 20" fill="none">
  <path d="M13.775 17.9167C10.5429 17.9125 7.44433 16.6267 5.15886 14.3412C2.87338 12.0557 1.58756 8.95715 1.58337 5.72501C1.58337 4.75918 1.96705 3.83291 2.64999 3.14996C3.33294 2.46702 4.25921 2.08334 5.22504 2.08334C5.42956 2.08178 5.63374 2.10035 5.83462 2.13876C6.02883 2.1675 6.21974 2.21523 6.40462 2.28126C6.53465 2.32688 6.65052 2.40566 6.74077 2.50979C6.83102 2.61393 6.89253 2.73982 6.91921 2.87501L8.00379 7.62501C8.03302 7.75394 8.0295 7.88814 7.99355 8.01537C7.9576 8.14259 7.89035 8.25878 7.79796 8.35334C7.69504 8.46418 7.68712 8.47209 6.71337 8.97876C7.49316 10.6894 8.86132 12.0632 10.5688 12.85C11.0834 11.8683 11.0913 11.8604 11.2021 11.7575C11.2967 11.6651 11.4129 11.5979 11.5401 11.5619C11.6673 11.526 11.8015 11.5224 11.9305 11.5517L16.6805 12.6363C16.8113 12.6666 16.9323 12.7298 17.032 12.8198C17.1317 12.9098 17.2069 13.0238 17.2505 13.1508C17.3173 13.3388 17.3676 13.5321 17.4009 13.7288C17.4327 13.9277 17.4486 14.1289 17.4484 14.3304C17.4338 15.2921 17.0393 16.209 16.3511 16.8809C15.6629 17.5528 14.7368 17.9252 13.775 17.9167Z" fill="#262626"/>
</svg>