<svg xmlns="http://www.w3.org/2000/svg" width="21" height="17" viewBox="0 0 21 17" fill="none">
  <path fill-rule="evenodd" clip-rule="evenodd" d="M16.8225 9.08751C16.9763 9.26952 17.2118 9.375 17.5 9.375C17.8802 9.375 18.1687 9.1914 18.2988 8.8907L20.3876 6.04999C20.6501 5.69999 20.5626 5.08749 20.2126 4.82499C19.8626 4.56249 19.2501 4.64999 18.9876 4.99999L18.0579 6.26438C17.1029 2.99117 14.0972 0.625 10.5 0.625C8.4 0.625 6.3875 1.4125 4.9 2.9C4.55 3.25 4.55 3.775 4.9 4.125C5.25 4.475 5.8625 4.475 6.125 4.125C7.35 2.9875 8.8375 2.375 10.5 2.375C13.2251 2.375 15.5038 4.10481 16.3113 6.53953L15.0505 5.61247C14.7005 5.34997 14.088 5.43747 13.8255 5.78747C13.563 6.13747 13.6505 6.74997 14.0005 7.01247L16.8225 9.08751ZM2.94215 10.7358C3.89719 14.0089 6.90283 16.375 10.5 16.375C12.6 16.375 14.6125 15.5875 16.1 14.1C16.45 13.75 16.45 13.225 16.1 12.875C15.75 12.525 15.225 12.525 14.875 12.875C13.65 14.0125 12.1625 14.625 10.5 14.625C7.77465 14.625 5.49577 12.8949 4.68852 10.4599L5.95009 11.3875C6.12509 11.475 6.30009 11.5625 6.47509 11.5625C6.73759 11.5625 7.00009 11.475 7.17509 11.2125C7.43759 10.8625 7.35009 10.25 7.00009 9.98749L4.17643 7.91127C4.02263 7.73001 3.78757 7.625 3.5 7.625C3.11955 7.625 2.831 7.8088 2.70094 8.10981L0.61259 10.95C0.35009 11.3 0.43759 11.9125 0.78759 12.175C0.96259 12.2625 1.13759 12.35 1.31259 12.35C1.57509 12.35 1.83759 12.2625 2.01259 12L2.94215 10.7358Z" fill="white"/>
</svg>