<svg xmlns="http://www.w3.org/2000/svg" width="21" height="21" viewBox="0 0 21 21" fill="none">
  <path d="M20.2314 20.2313C19.9877 20.475 19.6983 20.6683 19.3799 20.8002C19.0615 20.9321 18.7202 21 18.3755 21C18.0308 21 17.6895 20.9321 17.3711 20.8002C17.0527 20.6683 16.7634 20.475 16.5196 20.2313L12.4159 16.1276C10.6063 17.0529 8.52575 17.3018 6.54891 16.8295C4.57208 16.3571 2.82881 15.1946 1.63298 13.5511C0.437143 11.9077 -0.132687 9.89133 0.0260823 7.86508C0.184851 5.83884 1.06179 3.93583 2.499 2.4987C3.93622 1.06157 5.83929 0.18473 7.86557 0.0260525C9.89184 -0.132625 11.9082 0.437286 13.5516 1.63318C15.195 2.82906 16.3575 4.57236 16.8298 6.54919C17.302 8.52602 17.053 10.6065 16.1276 12.4161L20.2312 16.5198C20.4749 16.7634 20.6683 17.0527 20.8002 17.3712C20.9321 17.6896 21 18.0309 21 18.3755C21 18.7202 20.9321 19.0614 20.8002 19.3799C20.6683 19.6983 20.4751 19.9876 20.2314 20.2313ZM8.53359 13.1265C9.44198 13.1265 10.33 12.8571 11.0853 12.3524C11.8406 11.8478 12.4292 11.1305 12.7769 10.2912C13.1245 9.45201 13.2154 8.52855 13.0382 7.63763C12.861 6.7467 12.4236 5.92834 11.7813 5.28602C11.1389 4.6437 10.3205 4.20627 9.42962 4.02906C8.53868 3.85184 7.6152 3.9428 6.77596 4.29042C5.93672 4.63804 5.21941 5.22671 4.71473 5.982C4.21006 6.73729 3.94069 7.62527 3.94069 8.53364C3.94069 9.75174 4.42458 10.9199 5.28592 11.7813C6.14725 12.6426 7.31547 13.1265 8.53359 13.1265Z" fill="#262626"/>
</svg>