<svg xmlns="http://www.w3.org/2000/svg" width="30" height="30" viewBox="0 0 30 30" fill="none">
  <circle cx="15" cy="15" r="13" fill="white"/>
  <path fill-rule="evenodd" clip-rule="evenodd" d="M15 30C23.2843 30 30 23.2843 30 15C30 6.71573 23.2843 0 15 0C6.71573 0 0 6.71573 0 15C0 23.2843 6.71573 30 15 30ZM20.2614 15.6403C20.0603 15.9582 19.9798 16.1165 20.2614 16.4721C20.2825 16.5013 20.3892 16.6084 20.5505 16.7702C21.232 17.4542 22.8885 19.1165 23.1814 20.0127C23.3396 20.5397 23.0645 20.8068 22.5216 20.8068H20.617C20.1088 20.8068 19.8525 20.527 19.2977 19.9216C19.0618 19.6641 18.772 19.3478 18.3858 18.969C17.2535 17.8984 16.7687 17.759 16.4871 17.759C15.9711 17.759 15.9724 17.9035 15.9845 19.2464C15.9867 19.4846 15.9891 19.7606 15.9891 20.0802C15.9891 20.5397 15.8411 20.8068 14.6282 20.8068C12.6104 20.8068 10.3923 19.6041 8.8172 17.3845C6.45389 14.1328 5.80645 11.6715 5.80645 11.1765C5.80645 10.8963 5.91605 10.6459 6.4597 10.6459H8.36501C8.85349 10.6459 9.03713 10.8549 9.22512 11.3724C10.1564 14.0399 11.7278 16.3705 12.3752 16.3705C12.6184 16.3705 12.728 16.2595 12.728 15.6556V12.8996C12.684 12.1144 12.4051 11.7749 12.1985 11.5235C12.0709 11.3682 11.9709 11.2465 11.9709 11.0741C11.9709 10.8673 12.1517 10.6452 12.4558 10.6452H15.4506C15.852 10.6452 15.9877 10.8578 15.9877 11.334V15.0393C15.9877 15.4364 16.1728 15.5757 16.2918 15.5757C16.5335 15.5757 16.7382 15.4364 17.181 15.0016C18.5528 13.497 19.5225 11.1757 19.5225 11.1757C19.6423 10.8956 19.8658 10.6452 20.3507 10.6452H22.2552C22.8308 10.6452 22.9499 10.9369 22.8308 11.334L22.8294 11.3347C22.5899 12.4242 20.265 15.6367 20.2614 15.6403Z" fill="#5076FF"/>
</svg>