<svg xmlns="http://www.w3.org/2000/svg" width="52" height="36" viewBox="0 0 52 36" fill="none">
  <path d="M46 0H6C4.4087 0 2.88258 0.632141 1.75736 1.75736C0.632141 2.88258 0 4.4087 0 6V7H52V6C52 4.4087 51.3679 2.88258 50.2426 1.75736C49.1174 0.632141 47.5913 0 46 0ZM0 30C0 31.5913 0.632141 33.1174 1.75736 34.2426C2.88258 35.3679 4.4087 36 6 36H46C47.5913 36 49.1174 35.3679 50.2426 34.2426C51.3679 33.1174 52 31.5913 52 30V11H0V30ZM8 25H13C13.5304 25 14.0391 25.2107 14.4142 25.5858C14.7893 25.9609 15 26.4696 15 27C15 27.5304 14.7893 28.0391 14.4142 28.4142C14.0391 28.7893 13.5304 29 13 29H8C7.46957 29 6.96086 28.7893 6.58579 28.4142C6.21071 28.0391 6 27.5304 6 27C6 26.4696 6.21071 25.9609 6.58579 25.5858C6.96086 25.2107 7.46957 25 8 25Z" fill="#EE9D01"/>
</svg>