<svg xmlns="http://www.w3.org/2000/svg" width="35" height="35" viewBox="0 0 35 35" fill="none">
  <path d="M17.5 0C14.0388 0 10.6554 1.02636 7.77753 2.94928C4.89967 4.8722 2.65665 7.60533 1.33212 10.803C0.00758254 14.0007 -0.338976 17.5194 0.336265 20.9141C1.01151 24.3087 2.67822 27.4269 5.12564 29.8744C7.57306 32.3218 10.6913 33.9885 14.0859 34.6637C17.4806 35.339 20.9993 34.9924 24.197 33.6679C27.3947 32.3433 30.1278 30.1003 32.0507 27.2225C33.9736 24.3446 35 20.9612 35 17.5C35 12.8587 33.1563 8.40752 29.8744 5.12563C26.5925 1.84374 22.1413 0 17.5 0ZM23.8636 19.0909H17.5C17.0781 19.0909 16.6734 18.9233 16.3751 18.6249C16.0767 18.3266 15.9091 17.9219 15.9091 17.5V7.95454C15.9091 7.53261 16.0767 7.12795 16.3751 6.8296C16.6734 6.53125 17.0781 6.36363 17.5 6.36363C17.9219 6.36363 18.3266 6.53125 18.6249 6.8296C18.9233 7.12795 19.0909 7.53261 19.0909 7.95454V15.9091H23.8636C24.2856 15.9091 24.6902 16.0767 24.9886 16.3751C25.2869 16.6734 25.4545 17.0781 25.4545 17.5C25.4545 17.9219 25.2869 18.3266 24.9886 18.6249C24.6902 18.9233 24.2856 19.0909 23.8636 19.0909Z" fill="#262626"/>
</svg>