<svg xmlns="http://www.w3.org/2000/svg" width="58" height="45" viewBox="0 0 58 45" fill="none">
  <path d="M58 35.2456C58 40.1506 54.006 44.1446 49.1011 44.1446H0.682129V8.89899C0.682129 3.99403 4.67616 0 9.58112 0H58V35.2456Z" fill="white"/>
  <path d="M42.2339 26.2064H45.9126C46.0177 26.2064 46.263 26.1714 46.3681 26.1714C47.0688 26.0312 47.6644 25.4006 47.6644 24.5247C47.6644 23.6839 47.0688 23.0532 46.3681 22.8781C46.263 22.843 46.0527 22.843 45.9126 22.843H42.2339V26.2064Z" fill="url(#paint0_linear_249_2879)"/>
  <path d="M45.4925 2.97791C41.989 2.97791 39.1161 5.81577 39.1161 9.35435V15.976H48.1202C48.3304 15.976 48.5757 15.976 48.7508 16.0111C50.7829 16.1162 52.2894 17.1672 52.2894 18.9891C52.2894 20.4255 51.2734 21.6518 49.3815 21.897V21.9671C51.4485 22.1072 53.0251 23.2634 53.0251 25.0502C53.0251 26.9772 51.2734 28.2384 48.961 28.2384H39.0811V41.2015H48.4355C51.939 41.2015 54.8119 38.3637 54.8119 34.8251V2.97791H45.4925Z" fill="url(#paint1_linear_249_2879)"/>
  <path d="M47.2089 19.4096C47.2089 18.5687 46.6133 18.0082 45.9126 17.9031C45.8425 17.9031 45.6674 17.868 45.5622 17.868H42.2339V20.9512H45.5622C45.6674 20.9512 45.8776 20.9512 45.9126 20.9161C46.6133 20.811 47.2089 20.2504 47.2089 19.4096Z" fill="url(#paint2_linear_249_2879)"/>
  <path d="M10.2469 2.97791C6.74339 2.97791 3.87048 5.81577 3.87048 9.35435V25.0852C5.65729 25.9611 7.51417 26.5217 9.37104 26.5217C11.5783 26.5217 12.7695 25.1903 12.7695 23.3685V15.941H18.235V23.3335C18.235 26.2064 16.4482 28.5537 10.3871 28.5537C6.70835 28.5537 3.83545 27.7479 3.83545 27.7479V41.1665H13.1899C16.6934 41.1665 19.5663 38.3286 19.5663 34.79V2.97791H10.2469Z" fill="url(#paint3_linear_249_2879)"/>
  <path d="M27.8691 2.97791C24.3656 2.97791 21.4927 5.81577 21.4927 9.35435V17.6928C23.1043 16.3264 25.9071 15.4505 30.4267 15.6607C32.8441 15.7658 35.4368 16.4315 35.4368 16.4315V19.1292C34.1405 18.4635 32.5989 17.8679 30.6019 17.7278C27.1684 17.4826 25.1013 19.1643 25.1013 22.1072C25.1013 25.0852 27.1684 26.7669 30.6019 26.4867C32.5989 26.3465 34.1405 25.7159 35.4368 25.0852V27.783C35.4368 27.783 32.8792 28.4486 30.4267 28.5537C25.9071 28.764 23.1043 27.8881 21.4927 26.5217V41.2366H30.8471C34.3507 41.2366 37.2236 38.3987 37.2236 34.8601V2.97791H27.8691Z" fill="url(#paint4_linear_249_2879)"/>
  <defs>
    <linearGradient id="paint0_linear_249_2879" x1="39.1089" y1="24.5282" x2="54.8548" y2="24.5282" gradientUnits="userSpaceOnUse">
      <stop stop-color="#007940"/>
      <stop offset="0.2285" stop-color="#00873F"/>
      <stop offset="0.7433" stop-color="#40A737"/>
      <stop offset="1" stop-color="#5CB531"/>
    </linearGradient>
    <linearGradient id="paint1_linear_249_2879" x1="39.1098" y1="22.0738" x2="54.855" y2="22.0738" gradientUnits="userSpaceOnUse">
      <stop stop-color="#007940"/>
      <stop offset="0.2285" stop-color="#00873F"/>
      <stop offset="0.7433" stop-color="#40A737"/>
      <stop offset="1" stop-color="#5CB531"/>
    </linearGradient>
    <linearGradient id="paint2_linear_249_2879" x1="39.1088" y1="19.4043" x2="54.8533" y2="19.4043" gradientUnits="userSpaceOnUse">
      <stop stop-color="#007940"/>
      <stop offset="0.2285" stop-color="#00873F"/>
      <stop offset="0.7433" stop-color="#40A737"/>
      <stop offset="1" stop-color="#5CB531"/>
    </linearGradient>
    <linearGradient id="paint3_linear_249_2879" x1="3.86252" y1="22.0738" x2="19.8506" y2="22.0738" gradientUnits="userSpaceOnUse">
      <stop stop-color="#1F286F"/>
      <stop offset="0.4751" stop-color="#004E94"/>
      <stop offset="0.8261" stop-color="#0066B1"/>
      <stop offset="1" stop-color="#006FBC"/>
    </linearGradient>
    <linearGradient id="paint4_linear_249_2879" x1="21.4016" y1="22.0738" x2="36.9292" y2="22.0738" gradientUnits="userSpaceOnUse">
      <stop stop-color="#6C2C2F"/>
      <stop offset="0.1735" stop-color="#882730"/>
      <stop offset="0.5731" stop-color="#BE1833"/>
      <stop offset="0.8585" stop-color="#DC0436"/>
      <stop offset="1" stop-color="#E60039"/>
    </linearGradient>
  </defs>
</svg>