<svg xmlns="http://www.w3.org/2000/svg" width="48" height="36" viewBox="0 0 48 36" fill="none">
  <path d="M44.5714 27.4286H3.42857C2.51926 27.4286 1.64719 27.7898 1.00421 28.4328C0.361223 29.0758 0 29.9478 0 30.8571C0 32.2211 0.541835 33.5292 1.50631 34.4937C2.47078 35.4582 3.77889 36 5.14286 36H42.8571C44.2211 36 45.5292 35.4582 46.4937 34.4937C47.4582 33.5292 48 32.2211 48 30.8571C48 29.9478 47.6388 29.0758 46.9958 28.4328C46.3528 27.7898 45.4807 27.4286 44.5714 27.4286ZM44.5714 5.14286C44.5674 3.78014 44.0242 2.4744 43.0606 1.5108C42.097 0.547212 40.7913 0.00406987 39.4286 0H8.57143C7.20871 0.00406987 5.90297 0.547212 4.93938 1.5108C3.97578 2.4744 3.43264 3.78014 3.42857 5.14286V24H44.5714V5.14286ZM25.7143 6.85714H22.2857C21.8311 6.85714 21.395 6.67653 21.0735 6.35504C20.752 6.03355 20.5714 5.59751 20.5714 5.14286C20.5714 4.6882 20.752 4.25217 21.0735 3.93067C21.395 3.60918 21.8311 3.42857 22.2857 3.42857H25.7143C26.1689 3.42857 26.605 3.60918 26.9265 3.93067C27.248 4.25217 27.4286 4.6882 27.4286 5.14286C27.4286 5.59751 27.248 6.03355 26.9265 6.35504C26.605 6.67653 26.1689 6.85714 25.7143 6.85714Z" fill="#EE9D01"/>
</svg>