<svg xmlns="http://www.w3.org/2000/svg" width="115" height="33" viewBox="0 0 115 33" fill="none">
  <path fill-rule="evenodd" clip-rule="evenodd" d="M30.9471 0.132813V0.147009C30.9329 0.147009 26.4612 0.132813 25.2687 4.40579C24.1757 8.32386 21.0951 19.1412 21.01 19.4393H20.1582C20.1582 19.4393 17.0067 8.38065 15.8994 4.39159C14.707 0.118617 10.2211 0.132813 10.2211 0.132813H0V32.6415H10.2211V13.335H10.6469H11.0728L17.0351 32.6415H24.1331L30.0954 13.3492H30.9471V32.6415H41.1682V0.132813H30.9471Z" fill="#4DB45E"/>
  <path fill-rule="evenodd" clip-rule="evenodd" d="M68.2823 0.132812C68.2823 0.132812 65.287 0.402535 63.8816 3.53983L56.6417 19.4393H55.7899V0.132812H45.5688V32.6415H55.2221C55.2221 32.6415 58.3594 32.3576 59.7648 29.2345L66.8627 13.335H67.7145V32.6415H77.9356V0.132812H68.2823Z" fill="#4DB45E"/>
  <path fill-rule="evenodd" clip-rule="evenodd" d="M82.4785 14.8965V32.6414H92.6996V22.2784H103.772C108.599 22.2784 112.687 19.1979 114.206 14.8965H82.4785Z" fill="#4DB45E"/>
  <path fill-rule="evenodd" clip-rule="evenodd" d="M103.772 0.132812H81.0444C82.1801 6.32224 86.8222 11.2908 92.8271 12.9091C94.1899 13.2782 95.6236 13.477 97.1 13.477H114.618C114.774 12.7388 114.845 11.9864 114.845 11.2056C114.845 5.08719 109.891 0.132812 103.772 0.132812Z" fill="url(#paint0_linear_249_2909)"/>
  <defs>
    <linearGradient id="paint0_linear_249_2909" x1="81.0472" y1="6.8049" x2="114.845" y2="6.8049" gradientUnits="userSpaceOnUse">
      <stop offset="0.3" stop-color="#00B4E6"/>
      <stop offset="1" stop-color="#088CCB"/>
    </linearGradient>
  </defs>
</svg>