<svg xmlns="http://www.w3.org/2000/svg" width="43" height="36" viewBox="0 0 43 36" fill="none">
  <path d="M3.27273 8.18182H39.2727C39.7067 8.18182 40.1229 8.00942 40.4298 7.70254C40.7367 7.39566 40.9091 6.97944 40.9091 6.54545C40.9091 6.11146 40.7367 5.69525 40.4298 5.38837C40.1229 5.08149 39.7067 4.90909 39.2727 4.90909H3.27273C2.83874 4.90909 2.42252 5.08149 2.11564 5.38837C1.80877 5.69525 1.63636 6.11146 1.63636 6.54545C1.63636 6.97944 1.80877 7.39566 2.11564 7.70254C2.42252 8.00942 2.83874 8.18182 3.27273 8.18182ZM6.54545 3.27273H36C36.434 3.27273 36.8502 3.10032 37.1571 2.79345C37.464 2.48657 37.6364 2.07035 37.6364 1.63636C37.6364 1.20237 37.464 0.786158 37.1571 0.47928C36.8502 0.172402 36.434 0 36 0H6.54545C6.11146 0 5.69525 0.172402 5.38837 0.47928C5.08149 0.786158 4.90909 1.20237 4.90909 1.63636C4.90909 2.07035 5.08149 2.48657 5.38837 2.79345C5.69525 3.10032 6.11146 3.27273 6.54545 3.27273ZM40.9091 9.81818H1.63636C1.20237 9.81818 0.786157 9.99058 0.47928 10.2975C0.172402 10.6043 0 11.0206 0 11.4545V34.3636C0 34.7976 0.172402 35.2138 0.47928 35.5207C0.786157 35.8276 1.20237 36 1.63636 36H40.9091C41.3431 36 41.7593 35.8276 42.0662 35.5207C42.3731 35.2138 42.5455 34.7976 42.5455 34.3636V11.4545C42.5455 11.0206 42.3731 10.6043 42.0662 10.2975C41.7593 9.99058 41.3431 9.81818 40.9091 9.81818ZM7.70727 17.5255C7.39369 17.8245 6.97871 17.994 6.54545 18C6.33162 17.9974 6.12036 17.9529 5.92364 17.8691C5.72533 17.7862 5.54269 17.67 5.38364 17.5255C5.08462 17.2119 4.91512 16.7969 4.90909 16.3636C4.91168 16.1498 4.95615 15.9385 5.04 15.7418C5.11788 15.541 5.23466 15.3574 5.38364 15.2018C5.54269 15.0573 5.72533 14.9411 5.92364 14.8582C6.3231 14.6953 6.77071 14.6968 7.16909 14.8623C7.56747 15.0278 7.88439 15.3439 8.05091 15.7418C8.13476 15.9385 8.17923 16.1498 8.18182 16.3636C8.17579 16.7969 8.00629 17.2119 7.70727 17.5255ZM21.2727 29.4545C19.9782 29.4545 18.7127 29.0707 17.6363 28.3514C16.5599 27.6322 15.7209 26.61 15.2255 25.4139C14.7301 24.2179 14.6005 22.9018 14.853 21.6321C15.1056 20.3624 15.729 19.1962 16.6444 18.2808C17.5598 17.3654 18.7261 16.742 19.9958 16.4894C21.2655 16.2368 22.5815 16.3665 23.7776 16.8619C24.9736 17.3573 25.9959 18.1962 26.7151 19.2726C27.4343 20.349 27.8182 21.6145 27.8182 22.9091C27.8182 24.6451 27.1286 26.3099 25.9011 27.5374C24.6736 28.7649 23.0087 29.4545 21.2727 29.4545ZM37.1618 30.6164C36.8953 30.8851 36.5439 31.0531 36.1674 31.0918C35.7909 31.1305 35.4127 31.0375 35.097 30.8287C34.7814 30.6198 34.548 30.308 34.4364 29.9464C34.3248 29.5848 34.3421 29.1956 34.4852 28.8453C34.6283 28.4949 34.8884 28.205 35.2212 28.0248C35.5541 27.8447 35.9391 27.7856 36.3107 27.8574C36.6822 27.9292 37.0174 28.1277 37.2592 28.4189C37.5009 28.7101 37.6342 29.0761 37.6364 29.4545C37.6303 29.8878 37.4608 30.3028 37.1618 30.6164Z" fill="#EE9D01"/>
</svg>