<svg xmlns="http://www.w3.org/2000/svg" width="63" height="40" viewBox="0 0 63 40" fill="none">
  <path d="M39.9752 4.69751H23.0933V35.0314H39.9752V4.69751Z" fill="#FF5F00"/>
  <path d="M24.1647 19.8645C24.1647 13.9692 26.8979 8.3419 31.507 4.69756C23.1464 -1.89443 10.9807 -0.447407 4.38872 7.96675C-2.14966 16.3273 -0.702643 28.4394 7.71151 35.0314C14.7322 40.5515 24.5398 40.5515 31.5606 35.0314C26.8979 31.387 24.1647 25.7597 24.1647 19.8645Z" fill="#EB001B"/>
  <path d="M62.7514 19.8645C62.7514 30.5296 54.1229 39.1581 43.4578 39.1581C39.1167 39.1581 34.9364 37.7111 31.5601 35.0314C39.9206 28.4394 41.3676 16.3273 34.7757 7.91316C33.811 6.7341 32.7391 5.60864 31.5601 4.69756C39.9206 -1.89443 52.0863 -0.447407 58.6247 7.96675C61.3044 11.3431 62.7514 15.5234 62.7514 19.8645Z" fill="#F79E1B"/>
</svg>