<svg xmlns="http://www.w3.org/2000/svg" width="102" height="33" viewBox="0 0 102 33" fill="none">
  <mask id="mask0_249_2908" style="mask-type:luminance" maskUnits="userSpaceOnUse" x="0" y="0" width="102" height="33">
    <path d="M52.4859 10.5258C52.4285 15.0542 56.5216 17.5813 59.605 19.0837C62.773 20.6254 63.8371 21.6139 63.825 22.9924C63.8008 25.1024 61.2978 26.0335 58.955 26.0697C54.868 26.1332 52.492 24.9664 50.6026 24.0837L49.1305 30.9729C51.0258 31.8466 54.5355 32.6083 58.1751 32.6416C66.7179 32.6416 72.3073 28.4246 72.3376 21.886C72.3708 13.588 60.8595 13.1285 60.9381 9.4194C60.9653 8.29486 62.0384 7.09476 64.3903 6.78944C65.5541 6.63527 68.7675 6.51737 72.4101 8.1951L73.84 1.52953C71.8811 0.816116 69.363 0.132931 66.2282 0.132931C58.1872 0.132931 52.5313 4.40737 52.4859 10.5258ZM87.5792 0.707289C86.0194 0.707289 84.7044 1.61719 84.118 3.01379L71.9144 32.1519H80.4511L82.15 27.4573H92.5822L93.5676 32.1519H101.092L94.5259 0.707289H87.5792ZM88.7733 9.20174L91.237 21.0093H84.4898L88.7733 9.20174ZM42.1354 0.707289L35.4063 32.1519H43.541L50.2671 0.707289H42.1354ZM30.1011 0.707289L21.6338 22.1097L18.2088 3.9116C17.8068 1.88019 16.2198 0.707289 14.4574 0.707289H0.61536L0.421875 1.62021C3.26344 2.23689 6.49193 3.23145 8.44777 4.29552C9.64485 4.94545 9.98644 5.51376 10.3794 7.05848L16.8667 32.1519H25.4639L38.6439 0.707289H30.1011Z" fill="white"/>
  </mask>
  <g mask="url(#mask0_249_2908)">
    <path d="M-10.1201 4.0155L89.0695 -32.5137L111.635 28.7603L12.4461 65.2894" fill="url(#paint0_linear_249_2908)"/>
  </g>
  <defs>
    <linearGradient id="paint0_linear_249_2908" x1="9.541" y1="31.6536" x2="94.3841" y2="0.4072" gradientUnits="userSpaceOnUse">
      <stop stop-color="#222357"/>
      <stop offset="1" stop-color="#254AA5"/>
    </linearGradient>
  </defs>
</svg>